<?xml version="1.0" encoding="UTF-8"?>
<svg xmlns="http://www.w3.org/2000/svg" viewBox="0 0 362.83 362.83">
  <defs>
    <style>
      .cls-1, .cls-2 {
        fill: #fff;
      }

      .cls-2 {
        stroke: #fff;
        stroke-miterlimit: 10;
      }
    </style>
  </defs>
  <g id="Layer_6" data-name="Layer 6">
    <path class="cls-1" d="M115.2,131.89c6.26-6.54,20.19-20.63,42.39-26.14,15.79-3.92,28.51-1.28,33.51,0,83.72,21.41,116.03,201.78,77.79,226.32-10.28,6.6-26.86,2.7-36.77-3.3-32.63-19.78-29.3-72.87-44.44-73.73-5.11-.29-7.15,5.8-20.91,24.94-19.63,27.3-31.49,43.44-49.21,50.87-2.53,1.06-26.91,12.07-41.84,1.23-38.55-28-2.96-155.84,39.49-200.18Zm56.31,10.45c-27.39-.52-46.38,38.21-37.98,54.55,10.09,19.62,65.5,18.26,74.77-3.3,7.21-16.78-11.38-50.77-36.79-51.24Z"/>
  </g>
  <g id="Layer_4" data-name="Layer 4">
    <path class="cls-1" d="M68.93,86.51c-6.55,27.74,252.45,113.97,267.56,89.66,9.24-14.87-64.9-83.62-163.53-97.57-39.06-5.52-100.95-5.14-104.03,7.91Z"/>
  </g>
  <g id="Layer_5" data-name="Layer 5">
    <path class="cls-2" d="M138.96,93.76c.41-5.25,6.51-5.74,28.85-19.42,26.97-16.51,28.85-22.38,56.86-40.83,30.07-19.81,48.46-31.94,54.82-26.61,9.72,8.15-25.18,43.33-21.31,99.35,.87,12.61,3.12,17.79-.86,23.01-18.25,23.95-120.07-13.68-118.35-35.5Z"/>
  </g>
</svg>